<?xml version="1.0" encoding="iso-8859-1"?>
<!-- Uploaded to: SVG Repo, www.svgrepo.com, Generator: SVG Repo Mixer Tools -->
<svg fill="#000000" height="800px" width="800px" version="1.1" id="Layer_1" xmlns="http://www.w3.org/2000/svg" xmlns:xlink="http://www.w3.org/1999/xlink" 
	 viewBox="0 0 392.552 392.552" xml:space="preserve">
<g>
	<g>
		<path d="M391.403,234.427l-58.634-117.204h34.392c5.43,0,10.408-3.685,11.378-9.05c1.099-6.788-4.073-12.735-10.731-12.735
			h-85.269c-17.067,0-33.551-4.396-48.291-12.671c1.681-4.461,2.651-9.244,2.651-14.287c0-18.618-12.606-34.327-29.673-39.111
			V11.526c0-5.43-3.685-10.408-9.051-11.378c-6.788-1.099-12.735,4.073-12.735,10.731v18.489
			c-17.067,4.784-29.737,20.493-29.737,39.111c0,5.042,0.905,9.826,2.651,14.287c-14.739,8.275-31.224,12.671-48.291,12.671H25.504
			c-5.43,0-10.408,3.685-11.378,9.05c-1.099,6.788,4.073,12.735,10.731,12.735h34.909L1.197,234.427
			c-0.84,1.681-1.228,3.556-1.164,5.495c0.323,42.408,34.909,76.865,77.446,76.865s77.123-34.457,77.446-76.865
			c0.129-1.745-0.259-3.62-1.164-5.495L95.128,117.223h14.933c21.721,0,42.731-5.818,61.35-16.743
			c4.073,3.232,8.857,5.624,14.093,7.111V325.32c-28.509,4.267-52.558,24.954-60.444,53.398
			c-1.939,6.982,3.297,13.834,10.537,13.834h121.729c7.176,0,12.412-6.853,10.537-13.834c-7.887-28.38-31.935-49.067-60.444-53.398
			V107.461c5.172-1.487,9.891-3.879,13.964-7.111c18.554,10.99,39.564,16.743,61.349,16.743h14.933l-58.893,117.333
			c-0.84,1.552-1.228,3.426-1.164,5.495c0.323,42.408,34.909,76.865,77.446,76.865s77.123-34.392,77.446-76.865
			C392.631,237.918,392.243,236.107,391.403,234.427z M77.544,294.936c-26.958,0-49.519-19.265-54.626-44.735h109.188
			C126.999,275.736,104.502,294.936,77.544,294.936z M126.417,228.414h-97.81l48.937-97.745L126.417,228.414z M240.518,370.766
			h-88.436c9.438-14.933,25.988-24.436,44.218-24.436S231.079,355.833,240.518,370.766z M196.3,87.227
			c-10.343,0-18.747-8.404-18.747-18.747c0-10.343,8.404-18.747,18.747-18.747h0.065c0,0,0,0,0.065,0
			c10.343,0,18.683,8.404,18.683,18.747C215.047,78.823,206.643,87.227,196.3,87.227z M315.055,130.669l48.937,97.745h-97.81
			L315.055,130.669z M315.055,294.936c-26.958,0-49.519-19.265-54.562-44.735h109.188
			C364.574,275.736,342.013,294.936,315.055,294.936z"/>
	</g>
</g>
</svg>