<?xml version="1.0" encoding="iso-8859-1"?>
<!-- Uploaded to: SVG Repo, www.svgrepo.com, Generator: SVG Repo Mixer Tools -->
<svg fill="#000000" height="800px" width="800px" version="1.1" id="Layer_1" xmlns="http://www.w3.org/2000/svg" xmlns:xlink="http://www.w3.org/1999/xlink" 
	 viewBox="0 0 512 512" xml:space="preserve">
<g>
	<g>
		<path d="M155.547,278.261c16.717,42.032,45.614,80.208,83.758,109.607V278.261H155.547z"/>
	</g>
</g>
<g>
	<g>
		<path d="M272.696,278.261v109.607c38.144-29.398,67.042-67.574,83.761-109.607H272.696z"/>
	</g>
</g>
<g>
	<g>
		<path d="M139.131,165.446v29.336c0,16.883,2.109,33.652,5.943,50.087h94.231V131.869
			C208.109,148.482,174.139,159.933,139.131,165.446z"/>
	</g>
</g>
<g>
	<g>
		<path d="M272.696,131.871V244.87h94.232c3.833-16.434,5.941-33.204,5.941-50.087v-29.336
			C337.864,159.935,303.886,148.484,272.696,131.871z"/>
	</g>
</g>
<g>
	<g>
		<path d="M453.989,66.951c-68.055,9.685-137.609-13.495-186.184-62.06c-6.521-6.521-17.087-6.521-23.609,0
			C195.62,53.462,126.066,76.663,58.011,66.951c-10.013-1.448-19.054,6.358-19.054,16.528v111.304
			c0,131.886,82.413,255.777,209.946,315.636c2.25,1.054,4.674,1.582,7.098,1.582s4.847-0.528,7.098-1.582
			c127.532-59.858,209.946-183.75,209.946-315.636V83.479C473.044,73.225,463.906,65.506,453.989,66.951z M406.261,194.783
			c0,101.532-60.856,189.782-140.877,238.657c-2.325,1.55-6.092,2.893-9.384,2.893c-3.236,0-7.082-1.297-9.382-2.891
			c-83.76-51.162-140.879-141.446-140.879-238.659v-43.951c0-8.521,6.413-15.674,14.891-16.598
			c44.967-4.896,88.587-20.653,126.141-45.56c0.047-0.031,0.104-0.039,0.149-0.07c2.391-1.555,6.028-2.712,9.079-2.712
			c3.048,0,6.696,1.161,9.085,2.715c0.045,0.03,0.098,0.038,0.144,0.068c37.554,24.908,81.174,40.663,126.141,45.56
			c8.478,0.924,14.891,8.076,14.891,16.598V194.783z"/>
	</g>
</g>
</svg>